<?xml version="1.0" encoding="UTF-8" standalone="no"?>
<!-- Uploaded to: SVG Repo, www.svgrepo.com, Generator: SVG Repo Mixer Tools -->

<svg
   fill="#000000"
   height="15.260315"
   width="15.999999"
   version="1.1"
   id="Layer_1"
   viewBox="0 0 10.240019 9.7666207"
   xml:space="preserve"
   sodipodi:docname="briefcase-bag-svgrepo-com.svg"
   inkscape:version="1.3.2 (091e20e, 2023-11-25, custom)"
   xmlns:inkscape="http://www.inkscape.org/namespaces/inkscape"
   xmlns:sodipodi="http://sodipodi.sourceforge.net/DTD/sodipodi-0.dtd"
   xmlns="http://www.w3.org/2000/svg"
   xmlns:svg="http://www.w3.org/2000/svg"><defs
   id="defs6" /><sodipodi:namedview
   id="namedview6"
   pagecolor="#ffffff"
   bordercolor="#000000"
   borderopacity="0.25"
   inkscape:showpageshadow="2"
   inkscape:pageopacity="0.0"
   inkscape:pagecheckerboard="0"
   inkscape:deskcolor="#d1d1d1"
   inkscape:zoom="23.46"
   inkscape:cx="12.340153"
   inkscape:cy="14.428815"
   inkscape:window-width="3440"
   inkscape:window-height="1369"
   inkscape:window-x="130"
   inkscape:window-y="2152"
   inkscape:window-maximized="1"
   inkscape:current-layer="Layer_1" />
<g
   id="g2"
   transform="matrix(0.01999996,0,0,0.01999996,0,-0.23669953)">
	<g
   id="g1">
		<path
   d="M 140.562,289.144 H 98.345 c -4.832,0 -8.749,3.916 -8.749,8.749 v 42.216 c 0,4.833 3.917,8.749 8.749,8.749 h 42.217 c 4.832,0 8.749,-3.916 8.749,-8.749 v -42.216 c 0,-4.833 -3.917,-8.749 -8.749,-8.749 z m -8.749,42.215 h -24.719 v -24.718 h 24.719 z"
   id="path1" />
	</g>
</g>
<g
   id="g4"
   transform="matrix(0.01999996,0,0,0.01999996,0,-0.23669953)">
	<g
   id="g3">
		<path
   d="m 413.623,289.144 h -42.217 c -4.832,0 -8.749,3.916 -8.749,8.749 v 42.217 c 0,4.833 3.917,8.749 8.749,8.749 h 42.217 c 4.832,0 8.749,-3.916 8.749,-8.749 v -42.217 c 0,-4.833 -3.917,-8.749 -8.749,-8.749 z m -8.749,42.216 h -24.719 v -24.719 h 24.719 z"
   id="path2" />
	</g>
</g>
<g
   id="g6"
   transform="matrix(0.01999996,0,0,0.01999996,0,-0.23669953)">
	<g
   id="g5">
		<path
   d="M 471.609,98.286 H 374.793 V 81.511 c 0,-38.42 -31.256,-69.676 -69.676,-69.676 h -98.263 c -38.42,0 -69.676,31.256 -69.676,69.676 V 98.286 H 40.393 C 18.12,98.286 0,116.405 0,138.678 v 122.329 c 0,15.815 5.54,30.353 14.767,41.803 v 152.755 c 0,24.594 20.008,44.602 44.603,44.602 h 393.263 c 24.594,0 44.603,-20.007 44.603,-44.602 V 302.81 c 9.226,-11.45 14.766,-25.988 14.766,-41.802 V 138.678 C 512,116.405 493.881,98.286 471.609,98.286 Z M 154.675,81.511 c 0,-28.77 23.407,-52.178 52.178,-52.178 h 98.263 c 28.772,0 52.178,23.407 52.178,52.178 V 98.286 H 328.13 V 81.511 c 0,-12.69 -10.324,-23.015 -23.015,-23.015 h -98.263 c -12.69,0 -23.015,10.325 -23.015,23.015 V 98.286 H 154.674 V 81.511 Z m 155.958,0 V 98.286 H 201.337 V 81.511 c 0,-3.041 2.475,-5.517 5.517,-5.517 h 98.263 c 3.042,0.001 5.516,2.476 5.516,5.517 z m 169.103,374.054 c 0,14.946 -12.159,27.103 -27.104,27.103 H 59.37 c -14.946,0 -27.105,-12.159 -27.105,-27.103 V 318.139 c 10.203,6.158 22.081,9.527 34,9.61 v 35.693 c 0,4.833 3.917,8.749 8.749,8.749 h 7.784 v 17.573 c 0,20.211 16.444,36.655 36.655,36.655 20.211,0 36.655,-16.444 36.655,-36.655 V 372.19 h 7.785 c 4.832,0 8.749,-3.916 8.749,-8.749 V 327.75 h 166.683 v 35.691 c 0,4.833 3.917,8.749 8.749,8.749 h 7.786 v 17.573 c 0,20.211 16.444,36.655 36.655,36.655 20.211,0 36.655,-16.444 36.655,-36.655 V 372.19 h 7.784 c 4.832,0 8.749,-3.916 8.749,-8.749 v -35.693 c 11.935,-0.077 23.814,-3.447 34.031,-9.61 V 455.565 Z M 147.36,283.31 h 7.785 V 319 354.691 H 147.36 91.549 83.765 V 319 283.31 h 7.784 z m -47.062,-17.498 v -36.73 h 38.314 v 36.73 z m 38.313,106.378 v 17.573 c 0,10.563 -8.594,19.157 -19.157,19.157 -10.563,0 -19.157,-8.594 -19.157,-19.157 V 372.19 Z m 281.81,-88.88 h 7.784 V 319 354.691 h -7.784 -55.812 -7.785 V 319 283.31 h 7.785 z m -47.062,-17.498 v -36.73 h 38.313 v 36.73 z m 38.313,106.378 v 17.573 c 0,10.563 -8.594,19.157 -19.157,19.157 -10.563,0 -19.157,-8.594 -19.157,-19.157 V 372.19 Z m 82.83,-111.183 v 0 c 0,15.511 -7.549,30.428 -20.048,39.617 -8.281,6.088 -18.467,9.52 -28.75,9.615 v -35.677 c 0,-4.833 -3.917,-8.749 -8.749,-8.749 h -7.784 v -45.479 c 0,-4.833 -3.917,-8.749 -8.749,-8.749 H 364.61 c -4.832,0 -8.749,3.916 -8.749,8.749 v 45.479 h -7.786 c -4.832,0 -8.749,3.916 -8.749,8.749 v 35.69 H 172.643 v -35.69 c 0,-4.833 -3.917,-8.749 -8.749,-8.749 h -7.785 v -45.479 c 0,-4.833 -3.917,-8.749 -8.749,-8.749 H 91.549 c -4.832,0 -8.749,3.916 -8.749,8.749 v 45.479 h -7.784 c -4.832,0 -8.749,3.916 -8.749,8.749 v 35.677 c -0.433,-0.005 -0.864,-0.019 -1.295,-0.035 -16.021,-0.566 -31.12,-9.26 -39.745,-22.746 -5.035,-7.868 -7.728,-17.111 -7.728,-26.45 v -122.33 c 0,-12.624 10.27,-22.895 22.894,-22.895 h 105.533 46.662 126.795 46.662 105.565 c 12.624,0 22.893,10.27 22.893,22.895 v 122.329 z"
   id="path4" />
	</g>
</g>
</svg>
