<?xml version="1.0" encoding="UTF-8" standalone="no"?>
<!-- Uploaded to: SVG Repo, www.svgrepo.com, Generator: SVG Repo Mixer Tools -->

<svg
   width="32"
   height="29.019056"
   viewBox="0 0 3.6 3.2646438"
   version="1.1"
   id="svg4"
   sodipodi:docname="thumb-up-svgrepo-com.svg"
   inkscape:version="1.3.2 (091e20e, 2023-11-25, custom)"
   xmlns:inkscape="http://www.inkscape.org/namespaces/inkscape"
   xmlns:sodipodi="http://sodipodi.sourceforge.net/DTD/sodipodi-0.dtd"
   xmlns="http://www.w3.org/2000/svg"
   xmlns:svg="http://www.w3.org/2000/svg">
  <sodipodi:namedview
     id="namedview4"
     pagecolor="#ffffff"
     bordercolor="#000000"
     borderopacity="0.25"
     inkscape:showpageshadow="2"
     inkscape:pageopacity="0.0"
     inkscape:pagecheckerboard="0"
     inkscape:deskcolor="#d1d1d1"
     inkscape:zoom="8.2943625"
     inkscape:cx="76.859433"
     inkscape:cy="32.974204"
     inkscape:window-width="3440"
     inkscape:window-height="1369"
     inkscape:window-x="130"
     inkscape:window-y="2152"
     inkscape:window-maximized="1"
     inkscape:current-layer="svg4" />
  <defs
     id="defs1">
    <style
       id="style1">.cls-1{fill:#ffdac6;}.cls-2{fill:#ff8898;}.cls-3{fill:#ffeb97;}.cls-4{fill:#576065;}</style>
  </defs>
  <title
     id="title1">thumb-up</title>
  <g
     id="thumb-up"
     transform="matrix(0.03999937,0,0,0.03999937,0,-0.1673051)">
    <g
       id="thumb-up-2"
       data-name="thumb-up">
      <g
         id="fill">
        <path
           class="cls-1"
           d="M 31.06,76.07 33,76 c 5.41,-0.16 8.94,8 13,8 h 32 c 4,0 4.78,-5.89 4.73,-8.33 0,0 4.94,-2.21 2.68,-11.11 a 9.13,9.13 0 0 0 2.85,-7 9.17,9.17 0 0 0 -2.68,-6.81 11.52,11.52 0 0 0 2.68,-7.22 c 0,-4.3 -3.78,-6.75 -7.8,-6.75 H 68.71 c -10.24,0 -9.38,-5.4 -9.38,-5.4 0,0 -1.16,-14.13 -4.76,-20.6 C 50.05,2.6 41,5.33 44.36,15.89 c 2.51,7.78 -9,19.5 -13.16,23.45"
           id="path1" />
        <path
           class="cls-2"
           d="M 27.1,33.87 H 5.93 c -4,0 -4.13,3 -4.13,6.67 v 33.9 c 0,3.68 0.12,6.66 4.13,6.66 H 27.1 c 4,0 4.13,-3 4.13,-6.66 v -33.9 c 0,-3.68 -0.11,-6.67 -4.13,-6.67 z"
           id="path2" />
        <circle
           class="cls-3"
           cx="16.52"
           cy="69.779999"
           r="3.76"
           id="circle2" />
      </g>
      <g
         id="outline">
        <path
           class="cls-4"
           d="M 77.95,85.8 H 46 c -2.59,0 -4.69,-2.08 -6.73,-4.09 -2.04,-2.01 -4,-4 -6.19,-3.91 L 31.16,77.86 31,74.27 32.92,74.21 c 3.66,-0.18 6.43,2.57 8.83,4.94 1.52,1.5 3.09,3 4.2,3 h 32 a 1.7,1.7 0 0 0 1.3,-0.56 c 1.26,-1.28 1.66,-4.32 1.62,-5.93 v -1.2 l 1.1,-0.49 c 0.11,-0.06 3.49,-1.85 1.66,-9 L 83.27,63.58 84.36,63 a 7.7,7.7 0 0 0 2,-5.52 7.48,7.48 0 0 0 -2,-5.44 l -1.43,-1.21 1.27,-1.38 a 9.81,9.81 0 0 0 2.2,-6 c 0,-3.4 -3.11,-4.95 -6,-4.95 H 68.71 c -4.68,0 -8,-1.08 -9.79,-3.2 a 5.67,5.67 0 0 1 -1.4,-4 C 57.38,29.79 56.17,17.3 53,11.57 51.18,8.35 48.67,7.32 47.13,8 c -1.54,0.68 -2.4,3.17 -1.05,7.35 2.68,8.32 -7.4,19.43 -13.64,25.31 L 30,38 c 7.28,-6.86 14.44,-16.13 12.68,-21.58 -2.18,-6.75 0.28,-10.55 3,-11.75 3,-1.28 7.47,-0.2 10.45,5.18 3.74,6.73 4.93,20.74 5,21.33 v 0.22 0.21 0 a 2.15,2.15 0 0 0 0.61,1.45 c 0.63,0.7 2.39,1.87 7,1.87 H 80.4 c 5.47,0 9.6,3.67 9.6,8.55 a 13.25,13.25 0 0 1 -2.17,7.13 11.54,11.54 0 0 1 2.17,6.91 11.69,11.69 0 0 1 -2.67,7.62 c 1.46,7 -1.27,10.24 -2.88,11.51 -0.09,1.78 -0.54,5.37 -2.63,7.51 a 5.32,5.32 0 0 1 -3.87,1.64 z"
           id="path3" />
        <path
           class="cls-4"
           d="M 27.1,82.9 H 5.93 C 0,82.9 0,77.81 0,74.44 V 40.54 C 0,37.17 0,32.07 5.93,32.07 H 27.1 c 5.93,0 5.93,5.1 5.93,8.47 v 33.9 C 33,77.81 33,82.9 27.1,82.9 Z M 5.93,35.67 c -1.89,0 -2.33,0.45 -2.33,4.87 v 33.9 c 0,4.41 0.44,4.86 2.33,4.86 H 27.1 c 1.89,0 2.33,-0.45 2.33,-4.86 v -33.9 c 0,-4.42 -0.44,-4.87 -2.33,-4.87 z"
           id="path4" />
      </g>
    </g>
  </g>
</svg>
